HIERARCHY
ROOT Hips
{
	OFFSET 0.000000 121.760803 0.000000
	CHANNELS 6 Xposition Yposition Zposition Xrotation Yrotation Zrotation 
	JOINT Spine
	{
		OFFSET 0.072000 7.257294 -0.789700
		CHANNELS 3 Xrotation Yrotation Zrotation
		JOINT Spine1
		{
			OFFSET 0.000000 12.508769 -0.658067
			CHANNELS 3 Xrotation Yrotation Zrotation
			JOINT Spine1_split
			{
				OFFSET 0.000000 12.508769 -0.658067
				CHANNELS 3 Xrotation Yrotation Zrotation
				JOINT Spine2
				{
					OFFSET 0.000000 12.508769 -0.658067
					CHANNELS 3 Xrotation Yrotation Zrotation
					JOINT Neck
					{
						OFFSET 0.000000 14.033295 7.520400
						CHANNELS 3 Xrotation Yrotation Zrotation
						JOINT Head
						{
							OFFSET 0.000000 8.198502 5.703100
							CHANNELS 3 Xrotation Yrotation Zrotation
							JOINT HeadTop_End
							{
								OFFSET 0.000000 17.760803 13.332701
								CHANNELS 3 Xrotation Yrotation Zrotation
								End Site
								{
									OFFSET 0.000000 0.000000 0.000000
								}
							}
						}
					}
					JOINT LeftShoulder
					{
						OFFSET 6.292450 5.785301 -0.669000
						CHANNELS 3 Xrotation Yrotation Zrotation
						JOINT LeftShoulder_split
						{
							OFFSET 6.292450 5.785301 -0.669000
							CHANNELS 3 Xrotation Yrotation Zrotation
							JOINT LeftArm
							{
								OFFSET 13.907140 -6.093903 1.965100
								CHANNELS 3 Xrotation Yrotation Zrotation
								JOINT LeftForeArm
								{
									OFFSET 34.140198 0.000000 0.000000
									CHANNELS 3 Xrotation Yrotation Zrotation
									JOINT LeftHand
									{
										OFFSET 40.960209 0.000000 0.000000
										CHANNELS 3 Xrotation Yrotation Zrotation
										JOINT LeftHandThumb1
										{
											OFFSET 10.006996 -7.170425 9.573125
											CHANNELS 3 Xrotation Yrotation Zrotation
											JOINT LeftHandThumb2
											{
												OFFSET 1.835007 -1.059448 1.059443
												CHANNELS 3 Xrotation Yrotation Zrotation
												JOINT LeftHandThumb3
												{
													OFFSET 2.112267 -1.219513 1.219518
													CHANNELS 3 Xrotation Yrotation Zrotation
													JOINT LeftHandThumb4
													{
														OFFSET 4.843811 -2.796570 2.796576
														CHANNELS 3 Xrotation Yrotation Zrotation
														End Site
														{
															OFFSET 0.000000 0.000000 0.000000
														}
													}
												}
											}
										}
										JOINT LeftHandIndex1
										{
											OFFSET 18.389847 -0.922348 4.596882
											CHANNELS 3 Xrotation Yrotation Zrotation
											JOINT LeftHandIndex2
											{
												OFFSET 4.711273 0.000000 0.000000
												CHANNELS 3 Xrotation Yrotation Zrotation
												JOINT LeftHandIndex3
												{
													OFFSET 2.886131 0.000000 0.000000
													CHANNELS 3 Xrotation Yrotation Zrotation
													JOINT LeftHandIndex4
													{
														OFFSET 6.145912 0.000000 0.000000
														CHANNELS 3 Xrotation Yrotation Zrotation
														End Site
														{
															OFFSET 0.000000 0.000000 0.000000
														}
													}
												}
											}
										}
										JOINT LeftHandMiddle1
										{
											OFFSET 18.013008 0.000000 0.000000
											CHANNELS 3 Xrotation Yrotation Zrotation
											JOINT LeftHandMiddle2
											{
												OFFSET 4.946693 0.000000 0.000000
												CHANNELS 3 Xrotation Yrotation Zrotation
												JOINT LeftHandMiddle3
												{
													OFFSET 3.342232 0.000000 0.000000
													CHANNELS 3 Xrotation Yrotation Zrotation
													JOINT LeftHandMiddle4
													{
														OFFSET 4.461754 0.000000 0.000000
														CHANNELS 3 Xrotation Yrotation Zrotation
														End Site
														{
															OFFSET 0.000000 0.000000 0.000000
														}
													}
												}
											}
										}
										JOINT LeftHandRing1
										{
											OFFSET 15.849892 -0.102921 -4.126150
											CHANNELS 3 Xrotation Yrotation Zrotation
											JOINT LeftHandRing2
											{
												OFFSET 3.527054 0.000000 0.000000
												CHANNELS 3 Xrotation Yrotation Zrotation
												JOINT LeftHandRing3
												{
													OFFSET 2.961098 0.000000 0.000000
													CHANNELS 3 Xrotation Yrotation Zrotation
													JOINT LeftHandRing4
													{
														OFFSET 4.927200 0.000000 0.000000
														CHANNELS 3 Xrotation Yrotation Zrotation
														End Site
														{
															OFFSET 0.000000 0.000000 0.000000
														}
													}
												}
											}
										}
										JOINT LeftHandPinky1
										{
											OFFSET 12.791824 -0.832031 -6.799156
											CHANNELS 3 Xrotation Yrotation Zrotation
											JOINT LeftHandPinky2
											{
												OFFSET 3.327133 0.000000 0.000000
												CHANNELS 3 Xrotation Yrotation Zrotation
												JOINT LeftHandPinky3
												{
													OFFSET 3.014900 0.000000 0.000000
													CHANNELS 3 Xrotation Yrotation Zrotation
													JOINT LeftHandPinky4
													{
														OFFSET 5.847786 0.000000 0.000000
														CHANNELS 3 Xrotation Yrotation Zrotation
														End Site
														{
															OFFSET 0.000000 0.000000 0.000000
														}
													}
												}
											}
										}
									}
								}
							}
						}
					}
					JOINT RightShoulder
					{
						OFFSET -6.292450 5.785301 -0.669000
						CHANNELS 3 Xrotation Yrotation Zrotation
						JOINT RightShoulder_split
						{
							OFFSET -6.292450 5.785301 -0.669000
							CHANNELS 3 Xrotation Yrotation Zrotation
							JOINT RightArm
							{
								OFFSET -13.907140 -6.093903 1.965100
								CHANNELS 3 Xrotation Yrotation Zrotation
								JOINT RightForeArm
								{
									OFFSET -34.140198 0.000000 0.000000
									CHANNELS 3 Xrotation Yrotation Zrotation
									JOINT RightHand
									{
										OFFSET -40.960209 0.000000 0.000000
										CHANNELS 3 Xrotation Yrotation Zrotation
										JOINT RightHandThumb1
										{
											OFFSET -10.007050 -7.170456 9.573117
											CHANNELS 3 Xrotation Yrotation Zrotation
											JOINT RightHandThumb2
											{
												OFFSET -1.835007 -1.059448 1.059443
												CHANNELS 3 Xrotation Yrotation Zrotation
												JOINT RightHandThumb3
												{
													OFFSET -2.112267 -1.219513 1.219518
													CHANNELS 3 Xrotation Yrotation Zrotation
													JOINT RightHandThumb4
													{
														OFFSET -4.843834 -2.796585 2.796590
														CHANNELS 3 Xrotation Yrotation Zrotation
														End Site
														{
															OFFSET 0.000000 0.000000 0.000000
														}
													}
												}
											}
										}
										JOINT RightHandIndex1
										{
											OFFSET -18.389870 -0.922424 4.596786
											CHANNELS 3 Xrotation Yrotation Zrotation
											JOINT RightHandIndex2
											{
												OFFSET -4.711273 0.000000 0.000000
												CHANNELS 3 Xrotation Yrotation Zrotation
												JOINT RightHandIndex3
												{
													OFFSET -2.886131 0.000000 0.000000
													CHANNELS 3 Xrotation Yrotation Zrotation
													JOINT RightHandIndex4
													{
														OFFSET -6.145920 0.000000 0.000000
														CHANNELS 3 Xrotation Yrotation Zrotation
														End Site
														{
															OFFSET 0.000000 0.000000 0.000000
														}
													}
												}
											}
										}
										JOINT RightHandMiddle1
										{
											OFFSET -18.013008 0.000000 0.000000
											CHANNELS 3 Xrotation Yrotation Zrotation
											JOINT RightHandMiddle2
											{
												OFFSET -4.946693 0.000000 0.000000
												CHANNELS 3 Xrotation Yrotation Zrotation
												JOINT RightHandMiddle3
												{
													OFFSET -3.342232 0.000000 0.000000
													CHANNELS 3 Xrotation Yrotation Zrotation
													JOINT RightHandMiddle4
													{
														OFFSET -4.461754 0.000000 0.000000
														CHANNELS 3 Xrotation Yrotation Zrotation
														End Site
														{
															OFFSET 0.000000 0.000000 0.000000
														}
													}
												}
											}
										}
										JOINT RightHandRing1
										{
											OFFSET -15.849876 -0.102936 -4.126237
											CHANNELS 3 Xrotation Yrotation Zrotation
											JOINT RightHandRing2
											{
												OFFSET -3.527054 0.000000 0.000000
												CHANNELS 3 Xrotation Yrotation Zrotation
												JOINT RightHandRing3
												{
													OFFSET -2.961098 0.000000 0.000000
													CHANNELS 3 Xrotation Yrotation Zrotation
													JOINT RightHandRing4
													{
														OFFSET -4.927200 0.000000 0.000000
														CHANNELS 3 Xrotation Yrotation Zrotation
														End Site
														{
															OFFSET 0.000000 0.000000 0.000000
														}
													}
												}
											}
										}
										JOINT RightHandPinky1
										{
											OFFSET -12.791786 -0.832077 -6.799222
											CHANNELS 3 Xrotation Yrotation Zrotation
											JOINT RightHandPinky2
											{
												OFFSET -3.327133 0.000000 0.000000
												CHANNELS 3 Xrotation Yrotation Zrotation
												JOINT RightHandPinky3
												{
													OFFSET -3.014900 0.000000 0.000000
													CHANNELS 3 Xrotation Yrotation Zrotation
													JOINT RightHandPinky4
													{
														OFFSET -5.847786 0.000000 0.000000
														CHANNELS 3 Xrotation Yrotation Zrotation
														End Site
														{
															OFFSET 0.000000 0.000000 0.000000
														}
													}
												}
											}
										}
									}
								}
							}
						}
					}
				}
			}
		}
	}
	JOINT LeftUpLeg
	{
		OFFSET 13.026900 -6.336304 -1.092800
		CHANNELS 3 Xrotation Yrotation Zrotation
		JOINT LeftLeg
		{
			OFFSET 0.524474 -46.096886 9.782700
			CHANNELS 3 Xrotation Yrotation Zrotation
			JOINT LeftFoot
			{
				OFFSET -0.524474 -53.427422 -12.948200
				CHANNELS 3 Xrotation Yrotation Zrotation
				JOINT LeftToeBase
				{
					OFFSET 0.192200 -14.009700 16.364100
					CHANNELS 3 Xrotation Yrotation Zrotation
					JOINT LeftToe_End
					{
						OFFSET -1.784700 -0.561700 9.474800
						CHANNELS 3 Xrotation Yrotation Zrotation
						End Site
						{
							OFFSET 0.000000 0.000000 0.000000
						}
					}
				}
			}
		}
	}
	JOINT RightUpLeg
	{
		OFFSET -12.883000 -6.336304 -1.092800
		CHANNELS 3 Xrotation Yrotation Zrotation
		JOINT RightLeg
		{
			OFFSET -0.524587 -46.096825 9.782800
			CHANNELS 3 Xrotation Yrotation Zrotation
			JOINT RightFoot
			{
				OFFSET 0.524587 -53.427383 -12.948300
				CHANNELS 3 Xrotation Yrotation Zrotation
				JOINT RightToeBase
				{
					OFFSET -0.192200 -14.009700 16.364100
					CHANNELS 3 Xrotation Yrotation Zrotation
					JOINT RightToe_End
					{
						OFFSET 1.784700 -0.561700 9.474800
						CHANNELS 3 Xrotation Yrotation Zrotation
						End Site
						{
							OFFSET 0.000000 0.000000 0.000000
						}
					}
				}
			}
		}
	}
}
MOTION
Frames: 4
Frame Time: 0.016667
-4.271393 85.542664 0.902941 -0.037137 -7.861649 -17.648840 5.567184 1.404431 1.517782 4.651098 0.654911 1.633863 0.000000 0.000000 0.000000 4.657235 0.491970 1.673779 0.396501 1.761073 0.948532 -15.762639 26.254653 5.119160 0.000001 0.000001 0.000001 0.472292 0.823557 -6.563489 0.000000 0.000000 0.000000 41.287032 -17.715619 -58.148720 0.000016 -58.979817 0.000012 -18.820670 -33.533493 26.792976 5.358056 -0.141372 9.666155 3.545767 27.155816 3.560559 3.579363 15.544293 0.630959 -0.000000 -0.000000 -0.000001 -1.578833 0.825928 -19.703497 0.405098 2.870984 -21.069209 0.009622 -0.615555 3.987627 0.000001 0.000002 0.000001 0.409509 7.162241 -25.647939 0.416493 2.993241 -22.185342 0.003730 -0.023818 3.007754 -0.000001 0.000001 0.000000 2.386874 10.570835 -32.882354 0.471670 2.115276 -18.421983 0.064938 0.187422 -1.985621 -0.000002 -0.000002 -0.000002 2.967943 13.388247 -36.938910 0.139965 1.667048 -18.441907 -0.013608 0.754514 1.032458 0.000002 -0.000001 -0.000002 0.625968 0.265419 11.021711 0.000000 0.000000 0.000000 -6.297844 23.802323 54.826905 -0.000278 96.646999 0.000276 -19.103264 24.520613 -3.410971 0.789361 -8.211540 -4.825401 0.020096 -13.361244 -9.371031 3.749504 -15.817811 -0.052398 -0.000001 0.000002 -0.000000 -1.070486 -2.247358 17.231264 0.405439 -2.871955 21.079311 -0.189674 0.296873 8.932111 0.000001 0.000001 0.000000 0.438985 -7.256203 26.595145 0.417437 -2.995680 22.211553 0.081208 -1.101474 9.870306 0.000001 -0.000001 0.000000 2.698228 -11.184243 32.166096 0.472422 -2.116943 18.440370 -0.173555 0.866919 9.714780 0.000002 -0.000001 0.000000 4.305367 -16.260321 34.920978 0.139794 -1.666349 18.434704 -0.527450 1.126972 9.842073 -0.000000 -0.000001 0.000000 -66.963154 6.651259 8.336026 103.658359 7.227021 -0.304419 12.826330 1.056584 18.515116 -1.408053 -0.000003 0.000003 0.000000 -0.000000 0.000000 -33.561087 1.742801 1.197998 66.513905 8.555446 0.428077 -35.300480 -0.394264 8.280185 -5.746941 0.000000 0.000000 0.000000 0.000000 0.000000 
-3.452515 85.953743 11.684288 -0.241864 -6.642026 -17.219945 5.459925 3.617697 1.532578 4.641764 1.992368 1.349663 0.000000 0.000000 0.000000 4.668627 1.846767 1.438063 0.764413 1.195515 1.133489 -15.802203 22.159425 4.754595 0.000000 -0.000001 0.000000 0.417701 0.977522 -5.230732 0.000000 0.000000 0.000000 51.088107 -19.833365 -55.708570 -0.000014 -63.791563 -0.000016 -19.494456 -33.921380 26.202656 5.358056 -0.141367 9.666159 3.545767 27.155813 3.560557 3.579362 15.544291 0.630961 0.000000 0.000000 -0.000000 -1.578833 0.825932 -19.703496 0.405099 2.870989 -21.069206 0.009621 -0.615558 3.987629 -0.000002 0.000003 0.000002 0.409509 7.162245 -25.647941 0.416496 2.993232 -22.185342 0.003730 -0.023818 3.007747 0.000001 -0.000001 0.000000 2.386874 10.570840 -32.882351 0.471667 2.115277 -18.421982 0.064936 0.187421 -1.985623 -0.000000 0.000002 0.000000 2.967942 13.388249 -36.938910 0.139963 1.667048 -18.441907 -0.013608 0.754512 1.032462 -0.000003 0.000001 -0.000000 0.552488 2.485360 8.941595 0.000000 0.000000 0.000000 -15.548120 21.166659 54.791518 -0.000186 101.079143 0.000181 -18.201853 23.757838 -3.922288 0.789360 -8.211541 -4.825401 0.020094 -13.361245 -9.371033 3.749506 -15.817811 -0.052398 0.000001 -0.000000 -0.000000 -1.070487 -2.247357 17.231261 0.405443 -2.871953 21.079323 -0.189673 0.296873 8.932109 -0.000003 -0.000001 -0.000001 0.438984 -7.256202 26.595148 0.417436 -2.995681 22.211553 0.081207 -1.101474 9.870307 -0.000002 0.000000 0.000001 2.698227 -11.184242 32.166103 0.472422 -2.116945 18.440363 -0.173553 0.866920 9.714780 -0.000000 -0.000000 -0.000000 4.305368 -16.260317 34.920981 0.139792 -1.666348 18.434703 -0.527453 1.126974 9.842075 -0.000003 -0.000000 0.000000 -73.086555 6.120345 6.843848 97.691957 7.216212 -0.131466 11.872354 2.036638 17.831910 -4.514856 -0.000003 0.000005 -0.000005 0.000000 0.000000 -23.552903 0.945091 -2.414562 63.681685 7.820398 0.862029 -38.564375 1.984651 10.230147 -9.933633 -0.000000 -0.000001 0.000000 0.000000 -0.000001 
-2.476288 86.713463 22.663815 -0.138049 -4.890471 -16.350892 5.119964 6.001260 0.975332 4.448704 3.149790 1.037702 0.000000 0.000000 0.000000 4.488397 3.024020 1.166610 1.152619 0.559720 1.495089 -15.349720 17.467128 4.353241 -0.000000 0.000001 -0.000000 0.360100 0.455522 -3.526980 0.000000 0.000000 0.000000 59.840401 -20.330466 -53.492921 0.000041 -68.582148 0.000016 -20.234671 -34.438026 25.571374 5.358056 -0.141371 9.666159 3.545766 27.155813 3.560556 3.579363 15.544290 0.630962 0.000000 0.000001 -0.000002 -1.578833 0.825935 -19.703496 0.405098 2.870992 -21.069202 0.009625 -0.615557 3.987630 -0.000003 -0.000001 -0.000004 0.409510 7.162244 -25.647941 0.416495 2.993237 -22.185346 0.003729 -0.023816 3.007747 -0.000000 0.000002 0.000002 2.386874 10.570841 -32.882358 0.471667 2.115277 -18.421982 0.064937 0.187420 -1.985621 0.000000 0.000002 0.000005 2.967942 13.388250 -36.938910 0.139962 1.667049 -18.441903 -0.013606 0.754513 1.032459 0.000000 0.000001 0.000000 0.572469 3.368495 7.197854 0.000000 0.000000 0.000000 -23.014565 20.036251 54.517228 -0.000033 105.501759 0.000037 -15.360240 23.077290 -5.389259 0.789356 -8.211543 -4.825401 0.020094 -13.361246 -9.371034 3.749500 -15.817813 -0.052398 0.000001 -0.000002 0.000000 -1.070486 -2.247357 17.231264 0.405438 -2.871958 21.079316 -0.189668 0.296875 8.932108 0.000002 -0.000000 0.000000 0.438986 -7.256201 26.595145 0.417437 -2.995678 22.211551 0.081204 -1.101475 9.870307 0.000002 -0.000000 0.000000 2.698227 -11.184239 32.166096 0.472424 -2.116945 18.440370 -0.173551 0.866920 9.714779 0.000005 -0.000001 0.000001 4.305366 -16.260314 34.920978 0.139800 -1.666346 18.434703 -0.527452 1.126974 9.842075 -0.000001 0.000001 0.000000 -76.670779 5.865106 4.308307 89.418173 7.559814 0.077199 9.406747 3.287133 16.929136 -6.755322 0.000001 -0.000001 0.000002 -0.000000 0.000000 -13.626025 -0.011271 -5.803129 59.171889 7.155034 1.190770 -37.573957 3.577978 13.122198 -17.492847 -0.000001 -0.000000 0.000000 -0.000000 -0.000000 
-1.345268 87.808502 33.625904 0.079884 -2.958024 -15.419123 4.715094 8.420978 0.216149 4.164441 4.140926 0.752280 0.000000 0.000000 0.000000 4.210766 4.034415 0.914157 1.524936 -0.077951 1.938764 -14.628453 12.752693 3.958221 -0.000000 0.000001 0.000000 0.346229 -0.354006 -1.729432 0.000000 0.000000 0.000000 67.332517 -19.844187 -52.035140 -0.000003 -73.056257 -0.000000 -21.063520 -34.966573 24.978888 5.358057 -0.141376 9.666156 3.545767 27.155809 3.560554 3.579363 15.544290 0.630960 0.000000 0.000001 -0.000002 -1.578834 0.825929 -19.703494 0.405099 2.870989 -21.069202 0.009621 -0.615554 3.987637 -0.000001 0.000002 0.000000 0.409509 7.162240 -25.647937 0.416493 2.993237 -22.185337 0.003727 -0.023820 3.007752 0.000001 0.000001 0.000001 2.386874 10.570835 -32.882358 0.471668 2.115274 -18.421976 0.064937 0.187420 -1.985623 0.000001 -0.000000 -0.000003 2.967942 13.388245 -36.938910 0.139962 1.667049 -18.441903 -0.013607 0.754514 1.032460 -0.000001 -0.000001 -0.000002 0.591748 3.455527 5.803170 0.000000 0.000000 0.000000 -28.885850 20.146526 54.610112 0.000012 109.781330 0.000003 -11.356454 22.070674 -7.051898 0.789362 -8.211538 -4.825399 0.020095 -13.361251 -9.371033 3.749502 -15.817813 -0.052399 -0.000000 -0.000001 0.000001 -1.070486 -2.247355 17.231263 0.405441 -2.871956 21.079316 -0.189672 0.296874 8.932111 -0.000003 -0.000000 0.000000 0.438989 -7.256199 26.595145 0.417434 -2.995681 22.211551 0.081201 -1.101474 9.870307 0.000001 0.000000 -0.000001 2.698226 -11.184244 32.166103 0.472418 -2.116945 18.440368 -0.173555 0.866919 9.714779 0.000001 -0.000000 0.000000 4.305370 -16.260317 34.920981 0.139794 -1.666348 18.434704 -0.527450 1.126974 9.842075 -0.000002 0.000000 0.000000 -77.829555 5.546023 1.380506 79.223214 8.188622 0.300794 5.697712 4.471662 16.039328 -7.089097 0.000004 0.000002 0.000000 0.000000 -0.000000 -4.848552 -1.098803 -8.419541 53.780025 6.968460 1.353535 -30.536871 5.007761 16.372518 -29.977799 0.000004 -0.000004 0.000000 0.000000 -0.000000 
